<svg width="143" height="54" viewBox="0 0 143 54" fill="none" xmlns="http://www.w3.org/2000/svg">
<path d="M119.5 54C130.27 54 139 45.2696 139 34.5C139 23.7304 130.27 15 119.5 15C108.73 15 100 23.7304 100 34.5C100 45.2696 108.73 54 119.5 54Z" fill="url(#paint0_linear_20_38)"/>
<path d="M108.201 0L119.23 14.9639V14.6357L119.766 15.3613L120.29 14.6533V15.1738L131.438 0H141.198L124.859 22.2725L142.35 46H132.219L120.29 29.7822V30.2598L119.646 29.3799L119.23 29.9482V29.4902L107.188 46H97.1035L114.549 22.4141L98.1484 0H108.201ZM102.091 2L117.031 22.4199L101.07 44H106.171L119.644 25.5283L133.23 44H138.391L122.377 22.2754L137.25 2H132.45L119.84 19.1641L107.19 2H102.091Z" fill="white"/>
<path d="M72.4004 14H69.4189V45.1641H72.4004V14ZM74.4004 47.1641H67.4189V12H74.4004V47.1641Z" fill="white"/>
<path d="M69.4186 45.1641V14.0001H72.4006V45.1641H69.4186Z" fill="white"/>
<path d="M88.0547 23.1143H85.0732V45.1641H88.0547V23.1143ZM88.7686 16.0576C88.7684 15.4698 88.5586 14.9798 88.1387 14.5879C87.7713 14.245 87.3289 14.0517 86.8115 14.0088L86.585 14C85.9691 14 85.4512 14.2101 85.0312 14.6299C84.6114 15.0218 84.4005 15.5118 84.4004 16.0996C84.4004 16.6876 84.6112 17.1923 85.0312 17.6123C85.3987 17.9796 85.841 18.1865 86.3584 18.2324L86.585 18.2422C87.2288 18.2422 87.7467 18.0321 88.1387 17.6123C88.5587 17.1923 88.7686 16.6736 88.7686 16.0576ZM90.0547 47.1641H83.0732V21.1143H90.0547V47.1641ZM90.7686 16.0576C90.7686 17.1821 90.3631 18.216 89.5527 19.0264L89.5518 19.0254C88.74 19.8665 87.6875 20.2422 86.585 20.2422C85.4605 20.2422 84.4265 19.8367 83.6162 19.0264C82.8255 18.2356 82.4004 17.224 82.4004 16.0996C82.4005 14.979 82.8246 13.9599 83.6504 13.1816C84.4555 12.3939 85.4762 12 86.585 12C87.6674 12 88.6853 12.362 89.5039 13.126C90.3395 13.906 90.7684 14.9303 90.7686 16.0576Z" fill="white"/>
<path d="M85.0728 45.1641V23.1141H88.0548V45.1641H85.0728ZM86.5848 18.2421C85.9688 18.2421 85.4508 18.0321 85.0308 17.6121C84.6108 17.1921 84.4008 16.6881 84.4008 16.1001C84.4008 15.5121 84.6108 15.0221 85.0308 14.6301C85.4508 14.2101 85.9688 14.0001 86.5848 14.0001C87.2008 14.0001 87.7188 14.1961 88.1388 14.5881C88.5588 14.9801 88.7688 15.4701 88.7688 16.0581C88.7688 16.6741 88.5588 17.1921 88.1388 17.6121C87.7468 18.0321 87.2288 18.2421 86.5848 18.2421Z" fill="white"/>
<path d="M57.4189 34.2139C57.4189 32.0019 56.9282 30.056 55.9482 28.376C55.0557 26.801 53.8314 25.5455 52.2744 24.6104L51.959 24.4277C50.384 23.5353 48.5872 23.0607 46.5693 23.0049L46.1621 23C44.0063 23.0001 42.0881 23.4758 40.4082 24.4277C38.7283 25.3797 37.3989 26.6961 36.4189 28.376L36.2402 28.6943C35.3791 30.3004 34.9482 32.1403 34.9482 34.2139L34.9541 34.6201C35.0115 36.6399 35.5001 38.4504 36.4189 40.0518C37.3989 41.7316 38.7283 43.062 40.4082 44.042C42.1161 44.9939 44.0343 45.4697 46.1621 45.4697C48.1834 45.4697 50.0082 45.0516 51.6357 44.2148L51.959 44.042C53.6668 43.062 54.9963 41.7316 55.9482 40.0518C56.867 38.4504 57.3557 36.6399 57.4131 34.6201L57.4189 34.2139ZM52.3945 34.2139C52.3945 32.7627 52.0924 31.6015 51.5615 30.6621L51.5527 30.6475L51.5449 30.6328C51.0168 29.661 50.3127 28.9436 49.417 28.4346L49.4014 28.4268L49.3867 28.418C48.4919 27.8893 47.4494 27.6035 46.2041 27.6035C44.959 27.6036 43.9171 27.8894 43.0225 28.418L43.0078 28.4268L42.9922 28.4346C42.0892 28.9477 41.3637 29.6748 40.8057 30.6621C40.2747 31.6015 39.9727 32.7627 39.9727 34.2139C39.9727 35.6259 40.2705 36.7937 40.8105 37.7734C41.3702 38.7607 42.1015 39.5051 43.0156 40.0469C43.9152 40.5528 44.9479 40.8242 46.1621 40.8242V42.8242L45.876 42.8193C44.4502 42.7784 43.16 42.4297 42.0049 41.7734C40.7729 41.0455 39.7924 40.0379 39.0645 38.75C38.3819 37.5161 38.0192 36.1097 37.9766 34.5312L37.9727 34.2139C37.9727 32.4779 38.3365 30.9657 39.0645 29.6777C39.747 28.4702 40.6509 27.5208 41.7764 26.8301L42.0049 26.6953C43.2367 25.9676 44.6365 25.6036 46.2041 25.6035C47.7719 25.6035 49.1724 25.9675 50.4043 26.6953C51.6363 27.3953 52.6027 28.3897 53.3027 29.6777C54.0307 30.9657 54.3945 32.4779 54.3945 34.2139L54.3906 34.5312C54.348 36.1097 53.9853 37.5161 53.3027 38.75L53.168 38.9883C52.4806 40.1628 51.5592 41.091 50.4043 41.7734C49.1723 42.4734 47.7581 42.8242 46.1621 42.8242V40.8242C47.4454 40.8242 48.5039 40.5469 49.3936 40.0469C50.3028 39.508 51.0146 38.7706 51.5449 37.7949L51.5527 37.7812C52.0955 36.8 52.3945 35.6296 52.3945 34.2139ZM59.4189 34.2139C59.4189 36.7042 58.8561 38.9964 57.6875 41.0371L57.6885 41.0381C56.5562 43.0361 54.9663 44.6218 52.9541 45.7764L52.9434 45.7822L52.9326 45.7891C50.8971 46.9236 48.6232 47.4697 46.1621 47.4697C43.7243 47.4697 41.466 46.9214 39.4346 45.7891L39.418 45.7793L39.4004 45.7695C37.4226 44.6158 35.8452 43.0374 34.6914 41.0596L34.6875 41.0537L34.6836 41.0469C33.5115 39.0039 32.9483 36.7079 32.9482 34.2139C32.9482 31.6973 33.5096 29.3941 34.6914 27.3682C35.8482 25.3852 37.433 23.8151 39.4229 22.6875C41.4372 21.5461 43.7019 21.0001 46.1621 21C48.6404 21 50.9164 21.5419 52.9316 22.6807C54.9557 23.8088 56.5533 25.3864 57.6885 27.3896C58.8619 29.4105 59.4189 31.706 59.4189 34.2139Z" fill="white"/>
<path d="M46.1625 45.4698C44.0345 45.4698 42.1165 44.9938 40.4085 44.0418C38.7285 43.0618 37.3985 41.7318 36.4185 40.0518C35.4385 38.3438 34.9485 36.3978 34.9485 34.2138C34.9485 32.0018 35.4385 30.0558 36.4185 28.3758C37.3985 26.6958 38.7285 25.3798 40.4085 24.4278C42.0885 23.4758 44.0065 22.9998 46.1625 22.9998C48.3465 22.9998 50.2785 23.4758 51.9585 24.4278C53.6665 25.3798 54.9965 26.6958 55.9485 28.3758C56.9285 30.0558 57.4185 32.0018 57.4185 34.2138C57.4185 36.3978 56.9285 38.3438 55.9485 40.0518C54.9965 41.7318 53.6665 43.0618 51.9585 44.0418C50.2505 44.9938 48.3185 45.4698 46.1625 45.4698ZM46.1625 42.8238C47.7585 42.8238 49.1725 42.4738 50.4045 41.7738C51.6365 41.0458 52.6025 40.0378 53.3025 38.7498C54.0305 37.4338 54.3945 35.9218 54.3945 34.2138C54.3945 32.4778 54.0305 30.9658 53.3025 29.6778C52.6025 28.3898 51.6365 27.3958 50.4045 26.6958C49.1725 25.9678 47.7725 25.6038 46.2045 25.6038C44.6365 25.6038 43.2365 25.9678 42.0045 26.6958C40.7725 27.3958 39.7925 28.3898 39.0645 29.6778C38.3365 30.9658 37.9725 32.4778 37.9725 34.2138C37.9725 35.9218 38.3365 37.4338 39.0645 38.7498C39.7925 40.0378 40.7725 41.0458 42.0045 41.7738C43.2365 42.4738 44.6225 42.8238 46.1625 42.8238Z" fill="white"/>
<path d="M2 48.4545V15H15.1989C17.7363 15 19.898 15.4846 21.684 16.4538C23.4699 17.4122 24.8312 18.7462 25.7678 20.456C26.7152 22.1548 27.1889 24.1151 27.1889 26.3366C27.1889 28.5582 26.7098 30.5185 25.7514 32.2173C24.7931 33.9162 23.4046 35.2393 21.5859 36.1868C19.7782 37.1342 17.5893 37.608 15.0192 37.608H6.60653V31.9396H13.8757C15.237 31.9396 16.3587 31.7055 17.2408 31.2372C18.1338 30.7581 18.7981 30.0992 19.2337 29.2607C19.6802 28.4112 19.9034 27.4366 19.9034 26.3366C19.9034 25.2259 19.6802 24.2566 19.2337 23.429C18.7981 22.5904 18.1338 21.9425 17.2408 21.4851C16.3478 21.0168 15.2152 20.7827 13.843 20.7827H9.07315V48.4545H2Z" fill="white"/>
<defs>
<linearGradient id="paint0_linear_20_38" x1="119.5" y1="15" x2="119.5" y2="54" gradientUnits="userSpaceOnUse">
<stop stop-color="#30FF93"/>
<stop offset="1" stop-color="#A6FF7F"/>
</linearGradient>
</defs>
</svg>
