<svg width="120" height="120" viewBox="0 0 120 120" fill="none" xmlns="http://www.w3.org/2000/svg">
<g clip-path="url(#clip0_1609_2820)">
<path d="M100.078 0H19.9219C8.91933 0 0 9.14803 0 20.4327V99.5673C0 110.852 8.91933 120 19.9219 120H100.078C111.081 120 120 110.852 120 99.5673V20.4327C120 9.14803 111.081 0 100.078 0Z" fill="#001E36"/>
<path d="M27.0205 84.0168V31.3425C27.0205 30.9585 27.1818 30.7656 27.5038 30.7656L28.0133 30.7641L28.8843 30.7545L30.0946 30.7301L34.1493 30.6422L38.4969 30.5597C40.026 30.5328 41.5419 30.5184 43.0447 30.5184C47.1229 30.5184 50.5574 31.0406 53.3488 32.0846C55.8667 32.9568 58.1631 34.3929 60.0707 36.2884C61.6878 37.9316 62.9374 39.9145 63.7335 42.1003C64.4865 44.2273 64.8681 46.4734 64.8608 48.7358C64.8608 53.1331 63.8675 56.76 61.8819 59.6169C59.9398 62.4041 57.2308 64.5357 54.1007 65.7398L53.8321 65.8406C50.5635 67.0891 46.9438 67.5403 42.9739 67.5686L42.3571 67.5705L41.4416 67.5657L40.9799 67.559L40.4652 67.5465L40.1549 67.534L39.9664 67.524L39.5029 67.5067L38.9361 67.4947L38.083 67.4884L37.8932 67.488V83.9342C37.9073 84.035 37.8983 84.1378 37.8668 84.2344C37.8354 84.3311 37.7824 84.4189 37.7121 84.4909C37.6418 84.5629 37.556 84.6171 37.4617 84.6493C37.3673 84.6815 37.2669 84.6907 37.1685 84.6763H27.5844C27.208 84.6763 27.0205 84.4574 27.0205 84.0168ZM37.8936 40.6574V57.8376C38.5361 57.8907 39.1803 57.9182 39.8249 57.9201H42.4818C44.3135 57.9138 46.1346 57.6346 47.8879 57.0912L48.2375 56.9793C49.8325 56.4942 51.2577 55.5498 52.3433 54.2587C53.3521 53.0405 53.8747 51.3619 53.9108 49.2225L53.9132 48.983C53.9554 47.3884 53.5504 45.815 52.7455 44.4494C51.8996 43.1287 50.677 42.1069 49.2439 41.5228C47.3727 40.7781 45.3739 40.4278 43.3672 40.4928L42.3463 40.4956L41.7022 40.5014L41.0877 40.5096L40.2205 40.5269L39.5877 40.5451L39.2591 40.5576L38.8199 40.5787L38.4458 40.6022L38.2325 40.6195L38.0483 40.6377L37.9672 40.6473L37.8936 40.6574ZM95.9858 54.7137C94.5815 53.9748 93.092 53.4197 91.5524 53.0616L91.1961 52.9828C89.5023 52.5848 87.7731 52.3656 86.0357 52.3286L85.6016 52.3233C84.583 52.2951 83.566 52.4201 82.5829 52.6944C81.957 52.8369 81.4006 53.2018 81.0125 53.7245C80.7502 54.1426 80.6106 54.6291 80.6104 55.1261C80.625 55.608 80.7948 56.0716 81.0932 56.4446C81.5204 56.9563 82.034 57.385 82.6096 57.7104L82.7839 57.8049C83.9317 58.4378 85.1143 59.0019 86.3258 59.4945C89.0275 60.4207 91.609 61.6802 94.0133 63.2453C95.6515 64.3039 97.0071 65.7628 97.9583 67.4909C98.758 69.1268 99.1585 70.9369 99.1255 72.766C99.1737 75.1818 98.4995 77.5549 97.1933 79.5672C95.795 81.6096 93.8529 83.1974 91.5983 84.1416C89.2372 85.2043 86.3375 85.7529 82.8997 85.7889L82.5425 85.7909C80.4113 85.8129 78.2831 85.622 76.1882 85.2206L75.74 85.1313C73.9762 84.8001 72.2592 84.2463 70.6283 83.4825C70.4644 83.3959 70.3259 83.2662 70.2269 83.1069C70.1279 82.9475 70.072 82.7641 70.0649 82.5753V73.5907C70.0552 73.5035 70.0689 73.4152 70.1044 73.3353C70.1399 73.2555 70.1959 73.1869 70.2664 73.1371C70.3356 73.0971 70.4149 73.0796 70.494 73.087C70.573 73.0944 70.648 73.1262 70.7089 73.1784C72.6348 74.3413 74.7261 75.1895 76.9072 75.6926C78.8298 76.1862 80.802 76.4491 82.7839 76.476C84.6618 76.476 86.0436 76.2283 86.9296 75.7339C87.3296 75.5464 87.668 75.2441 87.9038 74.8638C88.1395 74.4834 88.2626 74.0412 88.258 73.5907C88.258 72.8774 87.8554 72.19 87.0505 71.53C86.713 71.2536 86.2288 70.9526 85.5988 70.6277L85.2974 70.476L84.9758 70.3209L84.8071 70.2422L84.4536 70.0819C84.3923 70.0545 84.3309 70.0273 84.2694 70.0003L83.885 69.8352L83.6849 69.7512L83.2696 69.5808L83.054 69.4944L82.6072 69.3182L82.1399 69.1392C79.6121 68.2383 77.2155 66.9904 75.0154 65.4297C73.4419 64.3091 72.1463 62.827 71.2321 61.102C70.4404 59.4777 70.0402 57.6829 70.0649 55.8676C70.0604 53.6866 70.6454 51.5468 71.7552 49.6853C73.0208 47.6357 74.8377 46.0036 76.9879 44.987C79.3489 43.7789 82.3002 43.1741 85.8425 43.1731C87.9173 43.156 89.99 43.3077 92.0413 43.6267C93.5266 43.8196 94.9788 44.2218 96.3566 44.8219C96.5783 44.8872 96.7569 45.0547 96.8394 45.2755C96.8943 45.4766 96.921 45.6845 96.92 45.8937V54.2193C96.9318 54.4161 96.8394 54.6048 96.6786 54.7137C96.571 54.7685 96.4524 54.797 96.3322 54.797C96.212 54.797 96.0935 54.7685 95.9858 54.7137Z" fill="#31A8FF"/>
</g>
<defs>
<clipPath id="clip0_1609_2820">
<rect width="120" height="120" fill="white"/>
</clipPath>
</defs>
</svg>
